<svg xmlns="http://www.w3.org/2000/svg" viewBox="0 0 1200 900" role="img" aria-labelledby="title desc">
  <title id="title">夏の農園風景</title>
  <desc id="desc">朝日に照らされた田んぼと夏野菜のある温かい農園風景</desc>
  <defs>
    <linearGradient id="sky" x1="0" x2="0" y1="0" y2="1">
      <stop offset="0" stop-color="#fff7cf"/>
      <stop offset=".55" stop-color="#f7e79f"/>
      <stop offset="1" stop-color="#d7ecb0"/>
    </linearGradient>
    <linearGradient id="field" x1="0" x2="1" y1="0" y2="1">
      <stop offset="0" stop-color="#8bbf59"/>
      <stop offset=".5" stop-color="#4f883d"/>
      <stop offset="1" stop-color="#2f6b36"/>
    </linearGradient>
    <filter id="soft">
      <feGaussianBlur stdDeviation="18"/>
    </filter>
  </defs>
  <rect width="1200" height="900" fill="url(#sky)"/>
  <circle cx="920" cy="180" r="92" fill="#fff2a8"/>
  <circle cx="920" cy="180" r="150" fill="#fff4a6" opacity=".28" filter="url(#soft)"/>
  <path d="M0 470 C240 390 385 500 610 425 C820 355 990 410 1200 330 L1200 900 L0 900 Z" fill="#5f9a41"/>
  <path d="M0 575 C180 530 330 595 520 530 C745 455 940 540 1200 455 L1200 900 L0 900 Z" fill="url(#field)"/>
  <path d="M95 900 C220 710 385 620 600 528 C418 690 345 790 300 900 Z" fill="#f4e4a7" opacity=".62"/>
  <path d="M920 900 C830 735 725 640 600 528 C760 645 930 720 1105 900 Z" fill="#d6c37d" opacity=".42"/>
  <g opacity=".36" stroke="#fff9d4" stroke-width="6">
    <path d="M0 660 C260 615 500 610 1200 565"/>
    <path d="M0 735 C320 675 720 690 1200 625"/>
    <path d="M0 815 C360 760 760 770 1200 705"/>
  </g>
  <g transform="translate(110 548)">
    <rect x="0" y="120" width="165" height="118" rx="18" fill="#fff8df" opacity=".92"/>
    <path d="M-15 135 L83 42 L182 135 Z" fill="#d56f37"/>
    <rect x="62" y="162" width="42" height="76" rx="8" fill="#8d5736"/>
    <rect x="22" y="158" width="35" height="32" rx="7" fill="#a9cfdf"/>
    <rect x="112" y="158" width="35" height="32" rx="7" fill="#a9cfdf"/>
  </g>
  <g transform="translate(780 560)">
    <ellipse cx="110" cy="140" rx="140" ry="74" fill="#2f6b36" opacity=".32"/>
    <path d="M65 40 C75 18 105 24 110 52 C115 24 148 18 158 42 C180 88 132 132 111 153 C88 132 43 88 65 40 Z" fill="#e95039"/>
    <path d="M130 34 C164 20 197 45 185 82 C174 120 130 141 111 154 C116 120 111 65 130 34 Z" fill="#f2c84b"/>
    <path d="M100 28 C82 4 42 14 38 50 C35 86 75 125 111 154 C102 118 123 62 100 28 Z" fill="#73aa48"/>
  </g>
</svg>
